<svg width="679" height="357" viewBox="0 0 679 357" fill="none" xmlns="http://www.w3.org/2000/svg">
<path d="M11.1331 356.4L0 340.163L1.77117 338.561L11.1331 352.177L21.3806 337.25L31.6281 352.177L41.8756 337.25L52.1231 352.177L61.4851 338.561L63.2562 340.163L52.1231 356.4L41.8756 341.473L31.6281 356.4L21.3806 341.473L11.1331 356.4Z" fill="#5588CC"/>
<path d="M160 16.7401C155.584 16.7401 152 12.9941 152 8.37855C152 3.76296 155.584 0.0169678 160 0.0169678C164.416 0.0169678 168 3.76296 168 8.37855C168 12.9941 164.416 16.7401 160 16.7401ZM160 2.79301C157.056 2.79301 154.656 5.30149 154.656 8.37855C154.656 11.4556 157.056 13.9641 160 13.9641C162.944 13.9641 165.344 11.4556 165.344 8.37855C165.344 5.30149 162.944 2.79301 160 2.79301Z" fill="#00C040"/>
<path d="M673.506 25.114C671.019 25.114 669 23.0041 669 20.4045C669 17.8048 671.019 15.6949 673.506 15.6949C675.993 15.6949 678.012 17.8048 678.012 20.4045C678.012 23.0041 675.993 25.114 673.506 25.114Z" fill="#FFBE4E" stroke="#FFBE4E" stroke-width="0.0901172"/>
</svg>
